<svg width="155" height="167" viewBox="0 0 155 167" fill="none" xmlns="http://www.w3.org/2000/svg">
<path d="M110.871 130.932C100.871 131.732 90.0376 155.266 85.8709 166.932C81.8709 147.732 85.2042 135.266 87.3709 131.432C89.3709 127.032 98.8709 117.599 103.371 113.432C103.371 101.832 96.0376 93.9324 92.3709 91.4324C115.171 87.8324 117.538 107.599 115.871 117.932C123.071 121.532 139.538 124.099 146.871 124.932C138.471 133.332 119.371 132.432 110.871 130.932Z" fill="white"/>
<path d="M109.542 50.3949C116.177 57.9196 141.508 52.484 153.344 48.8257C140.373 63.5366 128.397 68.3415 124.029 68.9051C119.309 69.9418 106.063 67.9925 100.031 66.8882C90.746 73.8417 88.8185 84.447 89.0154 88.8805C72.4667 72.7889 86.8697 59.0457 96.1398 54.1855C94.7053 46.2645 86.889 31.5457 83.1602 25.1764C94.919 26.8646 105.648 42.6922 109.542 50.3949Z" fill="white"/>
<path d="M45.1944 99.4919C47.4531 89.7175 28.2927 72.2803 18.4302 64.7834C37.9414 66.7714 48.8183 73.7155 51.8178 76.9391C55.4079 80.175 61.5301 92.0811 64.1425 97.6297C75.2004 101.134 84.9468 96.5307 88.4378 93.7908C84.9809 116.613 65.423 112.897 56.0762 108.186C50.469 113.962 43.0472 128.883 40.0371 135.622C34.5676 125.077 41.1963 107.141 45.1944 99.4919Z" fill="white"/>
<circle cx="8.5" cy="8.5" r="8.5" transform="matrix(-1 0 0 1 124 135)" fill="#D9D9D9"/>
<circle cx="8.5" cy="8.5" r="8.5" transform="matrix(0.599438 0.800421 0.800421 -0.599438 104.928 37.4478)" fill="#D9D9D9"/>
<circle cx="8.5" cy="8.5" r="8.5" transform="matrix(0.302134 -0.953266 -0.953266 -0.302134 37.3501 110.779)" fill="#D9D9D9"/>
</svg>
